<svg xmlns="http://www.w3.org/2000/svg" xmlns:xlink="http://www.w3.org/1999/xlink" preserveAspectRatio="xMidYMid" width="38.625" height="29.031" viewBox="0 0 38.625 29.031">
  <defs>
    <style>
      .cls-1 {
        fill: #fff;
        fill-rule: evenodd;
      }
    </style>
  </defs>
  <path d="M38.256,5.534 L15.147,28.643 C14.676,29.115 13.908,29.115 13.439,28.643 L10.023,25.196 C9.554,24.719 8.784,23.945 8.315,23.468 L0.369,15.117 C0.136,14.881 0.011,14.552 0.011,14.239 C0.011,13.928 0.136,13.629 0.369,13.392 L3.851,10.254 C4.086,10.012 4.402,9.896 4.713,9.899 C5.019,9.900 5.325,10.018 5.559,10.254 L13.439,18.294 C13.908,18.773 14.676,18.773 15.147,18.294 L33.134,0.360 C33.603,-0.115 34.371,-0.115 34.840,0.360 L38.256,3.809 C38.727,4.282 38.727,5.061 38.256,5.534 Z" class="cls-1"/>
</svg>
